<?xml version="1.0" encoding="iso-8859-1"?>
<!-- Generator: Adobe Illustrator 16.0.0, SVG Export Plug-In . SVG Version: 6.00 Build 0)  -->
<!DOCTYPE svg PUBLIC "-//W3C//DTD SVG 1.1//EN" "http://www.w3.org/Graphics/SVG/1.1/DTD/svg11.dtd">
<svg version="1.1" id="ENIS_Logo" xmlns="http://www.w3.org/2000/svg" xmlns:xlink="http://www.w3.org/1999/xlink" x="0px" y="0px"
	 width="595.28px" height="595.28px" viewBox="0 0 595.28 595.28" style="enable-background:new 0 0 595.28 595.28;"
	 xml:space="preserve">
<g id="Red">
	<g>
		<polygon style="fill:#ED1F24;" points="276.044,80.201 479.403,515.714 583.782,414.935 		"/>
	</g>
</g>
<g id="Black">
	<g>
		<path style="fill-rule:evenodd;clip-rule:evenodd;" d="M425.414,422.133H90.681L279.644,96.398l-7.199-14.397L58.288,440.129
			h374.325L425.414,422.133z M63.687,486.92H94.28l7.199-14.397l-26.995-1.8l7.199-14.396h53.989l5.399-14.397l-82.784,1.8
			l-46.791,71.985h104.379l7.199-19.796H60.087L63.687,486.92z M252.648,499.518l-71.985-55.789h-28.794l-26.995,71.985h35.993
			l17.996-48.59l70.187,48.59h34.192l7.199-71.985h-30.594L252.648,499.518z M301.239,441.929l-5.399,73.785h35.993l-7.199-71.985
			L301.239,441.929z M339.031,515.714h129.574l-17.996-43.191h-89.982v-10.798h84.583l-10.798-17.996h-98.98l3.6,46.79l95.381-1.799
			l5.399,12.597l-100.78-1.799V515.714z M213.057,233.17l50.39,53.989l-1.8,39.592h23.396V287.16l48.591-48.59l-55.789-124.175
			L213.057,233.17z M274.244,261.965l-26.994-35.993l28.794-53.989l23.396,55.789L274.244,261.965z M304.838,344.748h50.391
			l26.994,59.389h-80.983v10.798l120.575-1.8l-73.785-161.968l-43.191,37.792V344.748z M328.233,299.758l12.598-8.999l16.196,28.794
			l-28.794,1.801V299.758z M247.25,290.759l-43.191-43.191l-100.78,167.367h30.594l43.191-70.187l70.187-1.799V290.759z
			 M222.055,321.354l-30.594-1.801l16.196-28.794l14.397,12.598V321.354z M285.042,395.139h84.583l-17.996-32.395l-66.587-1.799
			v-19.797h-21.596v53.99h-70.186l10.798-23.396h39.592v-12.597l-59.388-1.8l-26.995,55.789h127.774V395.139z M285.042,373.543
			h41.392l7.199,12.597h-48.591V373.543z"/>
	</g>
</g>
</svg>
